# xmcd CD database file
#
# Track frame offsets:
#	183
#	17533
#	42658
#	57033
#	71008
#	94558
#	117208
#	130833
#	156558
#	177658
#	198408
#	214858
#	240033
#	256958
#	269783
#	284208
#
# Disc length: 3893 seconds
#
# Revision: 0
# Processed by: cddbd v1.4PL0 Copyright (c) Steve Scherf et al.
# Submitted via: Feurio! 1.65 - http://www.feurio.com
#
DISCID=f40f3310
DTITLE=Andy J. Forest and Kenny Holladay - Hogshead Cheese
DYEAR=1900
DGENRE=Bluesrock
TTITLE0=Harp a tune Ity knocks
TTITLE1=Hogshead Cheese
TTITLE2=Stones in my passway
TTITLE3=In-tent city
TTITLE4=Capable
TTITLE5=12 bar drive
TTITLE6=Je Joue
TTITLE7=As the years go passing by
TTITLE8=Champagne taste, white port pay
TTITLE9=Someday Baby
TTITLE10=The fly
TTITLE11=What's the name of that thing
TTITLE12=Run out
TTITLE13=A woman like you
TTITLE14=Hymn in D
TTITLE15=Notes for the blind
EXTD=
EXTT0=
EXTT1=
EXTT2=
EXTT3=
EXTT4=
EXTT5=
EXTT6=
EXTT7=
EXTT8=
EXTT9=
EXTT10=
EXTT11=
EXTT12=
EXTT13=
EXTT14=
EXTT15=
PLAYORDER=
